<mxfile host="app.diagrams.net" modified="2024-02-05T12:37:04.377Z" agent="Mozilla/5.0 (X11; Ubuntu; Linux x86_64; rv:122.0) Gecko/20100101 Firefox/122.0" etag="pjorhnvZWmBisIofIheg" version="21.6.9" type="device">
  <diagram id="3T3k2djzxvKGKJiDUspe" name="Page-1">
    <mxGraphModel dx="879" dy="958" grid="1" gridSize="10" guides="1" tooltips="1" connect="0" arrows="1" fold="1" page="1" pageScale="1" pageWidth="850" pageHeight="1100" math="0" shadow="0">
      <root>
        <mxCell id="0" />
        <mxCell id="1" parent="0" />
        <mxCell id="0y_FmM4RNKvWT69SuI2D-39" value="" style="group" parent="1" vertex="1" connectable="0">
          <mxGeometry x="40" y="160" width="600" height="280" as="geometry" />
        </mxCell>
        <mxCell id="UQibqdJCTZvLkwByiF-P-10" value="" style="group;fontSize=18;" parent="0y_FmM4RNKvWT69SuI2D-39" vertex="1" connectable="0">
          <mxGeometry x="200" width="80" height="80" as="geometry" />
        </mxCell>
        <mxCell id="UQibqdJCTZvLkwByiF-P-6" value="" style="ellipse;whiteSpace=wrap;html=1;strokeWidth=4;fillColor=#d5e8d4;strokeColor=#82b366;fontSize=18;" parent="UQibqdJCTZvLkwByiF-P-10" vertex="1">
          <mxGeometry width="80" height="80" as="geometry" />
        </mxCell>
        <mxCell id="UQibqdJCTZvLkwByiF-P-4" value="" style="shape=image;html=1;verticalAlign=top;verticalLabelPosition=bottom;labelBackgroundColor=#ffffff;imageAspect=0;aspect=fixed;image=https://cdn1.iconfinder.com/data/icons/ionicons-fill-vol-2/512/person-128.png;fontColor=#FF99FF;fontSize=18;" parent="UQibqdJCTZvLkwByiF-P-10" vertex="1">
          <mxGeometry x="10" y="10" width="60" height="60" as="geometry" />
        </mxCell>
        <mxCell id="UQibqdJCTZvLkwByiF-P-14" style="edgeStyle=orthogonalEdgeStyle;rounded=0;orthogonalLoop=1;jettySize=auto;html=1;exitX=1;exitY=0.5;exitDx=0;exitDy=0;entryX=0;entryY=0.5;entryDx=0;entryDy=0;fontColor=#FF99FF;fontSize=18;strokeWidth=2;" parent="0y_FmM4RNKvWT69SuI2D-39" source="UQibqdJCTZvLkwByiF-P-6" target="UQibqdJCTZvLkwByiF-P-7" edge="1">
          <mxGeometry relative="1" as="geometry" />
        </mxCell>
        <mxCell id="UQibqdJCTZvLkwByiF-P-16" value="" style="group;fontSize=18;" parent="0y_FmM4RNKvWT69SuI2D-39" vertex="1" connectable="0">
          <mxGeometry x="520" width="80" height="80" as="geometry" />
        </mxCell>
        <mxCell id="UQibqdJCTZvLkwByiF-P-12" value="" style="ellipse;whiteSpace=wrap;html=1;strokeWidth=4;fillColor=#e1d5e7;strokeColor=#9673a6;container=0;fontSize=18;" parent="UQibqdJCTZvLkwByiF-P-16" vertex="1">
          <mxGeometry width="80" height="80" as="geometry" />
        </mxCell>
        <mxCell id="UQibqdJCTZvLkwByiF-P-13" value="" style="shape=image;html=1;verticalAlign=top;verticalLabelPosition=bottom;labelBackgroundColor=#ffffff;imageAspect=0;aspect=fixed;image=https://cdn1.iconfinder.com/data/icons/ionicons-fill-vol-2/512/person-128.png;fontColor=#FF99FF;container=0;fontSize=18;" parent="UQibqdJCTZvLkwByiF-P-16" vertex="1">
          <mxGeometry x="10" y="10" width="60" height="60" as="geometry" />
        </mxCell>
        <mxCell id="UQibqdJCTZvLkwByiF-P-17" value="" style="group;fontSize=18;" parent="0y_FmM4RNKvWT69SuI2D-39" vertex="1" connectable="0">
          <mxGeometry x="360" width="80" height="80" as="geometry" />
        </mxCell>
        <mxCell id="UQibqdJCTZvLkwByiF-P-7" value="" style="ellipse;whiteSpace=wrap;html=1;strokeWidth=4;fillColor=#ffe6cc;strokeColor=#d79b00;fontSize=18;" parent="UQibqdJCTZvLkwByiF-P-17" vertex="1">
          <mxGeometry width="80" height="80" as="geometry" />
        </mxCell>
        <mxCell id="UQibqdJCTZvLkwByiF-P-8" value="" style="shape=image;html=1;verticalAlign=top;verticalLabelPosition=bottom;labelBackgroundColor=#ffffff;imageAspect=0;aspect=fixed;image=https://cdn1.iconfinder.com/data/icons/ionicons-fill-vol-2/512/person-128.png;fontColor=#FF99FF;fontSize=18;" parent="UQibqdJCTZvLkwByiF-P-17" vertex="1">
          <mxGeometry x="10" y="10" width="60" height="60" as="geometry" />
        </mxCell>
        <mxCell id="UQibqdJCTZvLkwByiF-P-15" style="edgeStyle=orthogonalEdgeStyle;rounded=0;orthogonalLoop=1;jettySize=auto;html=1;exitX=1;exitY=0.5;exitDx=0;exitDy=0;entryX=0;entryY=0.5;entryDx=0;entryDy=0;fontColor=#FF99FF;fontSize=18;strokeWidth=2;" parent="0y_FmM4RNKvWT69SuI2D-39" source="UQibqdJCTZvLkwByiF-P-7" target="UQibqdJCTZvLkwByiF-P-12" edge="1">
          <mxGeometry relative="1" as="geometry" />
        </mxCell>
        <mxCell id="UQibqdJCTZvLkwByiF-P-18" value="" style="rounded=0;whiteSpace=wrap;html=1;strokeWidth=4;fillColor=#d5e8d4;strokeColor=#82b366;fontSize=18;" parent="0y_FmM4RNKvWT69SuI2D-39" vertex="1">
          <mxGeometry x="200" y="120" width="80" height="120" as="geometry" />
        </mxCell>
        <mxCell id="UQibqdJCTZvLkwByiF-P-19" value="" style="rounded=0;whiteSpace=wrap;html=1;strokeWidth=4;fillColor=#ffe6cc;strokeColor=#d79b00;fontSize=18;" parent="0y_FmM4RNKvWT69SuI2D-39" vertex="1">
          <mxGeometry x="360" y="120" width="80" height="80" as="geometry" />
        </mxCell>
        <mxCell id="UQibqdJCTZvLkwByiF-P-20" value="" style="rounded=0;whiteSpace=wrap;html=1;strokeWidth=4;fillColor=#e1d5e7;strokeColor=#9673a6;fontSize=18;" parent="0y_FmM4RNKvWT69SuI2D-39" vertex="1">
          <mxGeometry x="520" y="120" width="80" height="40" as="geometry" />
        </mxCell>
        <mxCell id="UQibqdJCTZvLkwByiF-P-21" value="&lt;div&gt;Compartment&lt;/div&gt;Calls" style="text;html=1;strokeColor=none;fillColor=none;align=center;verticalAlign=middle;whiteSpace=wrap;rounded=0;strokeWidth=4;fontColor=#000000;rotation=0;fontSize=18;" parent="0y_FmM4RNKvWT69SuI2D-39" vertex="1">
          <mxGeometry width="160" height="80" as="geometry" />
        </mxCell>
        <mxCell id="UQibqdJCTZvLkwByiF-P-22" value="&lt;div&gt;Data permissions&lt;/div&gt;&lt;div&gt;for arguments&lt;br&gt;&lt;/div&gt;" style="text;html=1;strokeColor=none;fillColor=none;align=center;verticalAlign=middle;whiteSpace=wrap;rounded=0;strokeWidth=4;fontColor=#000000;rotation=0;fontSize=18;" parent="0y_FmM4RNKvWT69SuI2D-39" vertex="1">
          <mxGeometry y="120" width="160" height="80" as="geometry" />
        </mxCell>
        <mxCell id="UQibqdJCTZvLkwByiF-P-23" value="Call" style="text;html=1;strokeColor=none;fillColor=none;align=center;verticalAlign=middle;whiteSpace=wrap;rounded=0;strokeWidth=4;fontColor=#000000;rotation=0;fontSize=18;" parent="0y_FmM4RNKvWT69SuI2D-39" vertex="1">
          <mxGeometry x="280" width="80" height="40" as="geometry" />
        </mxCell>
        <mxCell id="UQibqdJCTZvLkwByiF-P-24" value="Permission reduction and transfer" style="text;html=1;strokeColor=none;fillColor=none;align=center;verticalAlign=middle;whiteSpace=wrap;rounded=0;strokeWidth=4;fontColor=#000000;rotation=0;fontSize=18;" parent="0y_FmM4RNKvWT69SuI2D-39" vertex="1">
          <mxGeometry x="280" y="200" width="160" height="80" as="geometry" />
        </mxCell>
        <mxCell id="UQibqdJCTZvLkwByiF-P-25" value="" style="endArrow=classic;html=1;rounded=0;strokeWidth=2;fontSize=18;fontColor=#000000;entryX=0;entryY=0.5;entryDx=0;entryDy=0;" parent="0y_FmM4RNKvWT69SuI2D-39" target="UQibqdJCTZvLkwByiF-P-19" edge="1">
          <mxGeometry width="50" height="50" relative="1" as="geometry">
            <mxPoint x="280" y="160" as="sourcePoint" />
            <mxPoint x="330" y="110" as="targetPoint" />
          </mxGeometry>
        </mxCell>
        <mxCell id="UQibqdJCTZvLkwByiF-P-26" value="" style="endArrow=classic;html=1;rounded=0;strokeWidth=2;fontSize=18;fontColor=#000000;entryX=0;entryY=0.5;entryDx=0;entryDy=0;" parent="0y_FmM4RNKvWT69SuI2D-39" edge="1">
          <mxGeometry width="50" height="50" relative="1" as="geometry">
            <mxPoint x="440" y="159" as="sourcePoint" />
            <mxPoint x="520" y="159" as="targetPoint" />
          </mxGeometry>
        </mxCell>
        <mxCell id="0y_FmM4RNKvWT69SuI2D-34" value="&lt;div&gt;WebApp&lt;br&gt;&lt;/div&gt;&lt;div&gt;&quot;Sandbox&quot;&lt;/div&gt;" style="text;html=1;strokeColor=none;fillColor=none;align=center;verticalAlign=middle;whiteSpace=wrap;rounded=0;fontSize=18;" parent="1" vertex="1">
          <mxGeometry x="520" y="480" width="80" height="80" as="geometry" />
        </mxCell>
        <mxCell id="0y_FmM4RNKvWT69SuI2D-11" value="" style="group;fontSize=18;" parent="1" vertex="1" connectable="0">
          <mxGeometry x="280" y="640" width="80" height="80" as="geometry" />
        </mxCell>
        <mxCell id="0y_FmM4RNKvWT69SuI2D-12" value="" style="ellipse;whiteSpace=wrap;html=1;strokeWidth=4;fillColor=#d5e8d4;strokeColor=#82b366;fontSize=18;" parent="0y_FmM4RNKvWT69SuI2D-11" vertex="1">
          <mxGeometry width="80" height="80" as="geometry" />
        </mxCell>
        <mxCell id="0y_FmM4RNKvWT69SuI2D-13" value="" style="shape=image;html=1;verticalAlign=top;verticalLabelPosition=bottom;labelBackgroundColor=#ffffff;imageAspect=0;aspect=fixed;image=https://cdn1.iconfinder.com/data/icons/ionicons-fill-vol-2/512/person-128.png;fontColor=#FF99FF;fontSize=18;" parent="0y_FmM4RNKvWT69SuI2D-11" vertex="1">
          <mxGeometry x="10" y="10" width="60" height="60" as="geometry" />
        </mxCell>
        <mxCell id="0y_FmM4RNKvWT69SuI2D-17" value="" style="group;fontSize=18;" parent="1" vertex="1" connectable="0">
          <mxGeometry x="520" y="720" width="80" height="80" as="geometry" />
        </mxCell>
        <mxCell id="0y_FmM4RNKvWT69SuI2D-18" value="" style="ellipse;whiteSpace=wrap;html=1;strokeWidth=4;fillColor=#e1d5e7;strokeColor=#9673a6;container=0;fontSize=18;" parent="0y_FmM4RNKvWT69SuI2D-17" vertex="1">
          <mxGeometry width="80" height="80" as="geometry" />
        </mxCell>
        <mxCell id="0y_FmM4RNKvWT69SuI2D-19" value="" style="shape=image;html=1;verticalAlign=top;verticalLabelPosition=bottom;labelBackgroundColor=#ffffff;imageAspect=0;aspect=fixed;image=https://cdn1.iconfinder.com/data/icons/ionicons-fill-vol-2/512/person-128.png;fontColor=#FF99FF;container=0;fontSize=18;" parent="0y_FmM4RNKvWT69SuI2D-17" vertex="1">
          <mxGeometry x="10" y="10" width="60" height="60" as="geometry" />
        </mxCell>
        <mxCell id="0y_FmM4RNKvWT69SuI2D-20" value="" style="group;fontSize=18;" parent="1" vertex="1" connectable="0">
          <mxGeometry x="760" y="560" width="80" height="80" as="geometry" />
        </mxCell>
        <mxCell id="0y_FmM4RNKvWT69SuI2D-21" value="" style="ellipse;whiteSpace=wrap;html=1;strokeWidth=4;fillColor=#dae8fc;strokeColor=#6c8ebf;container=0;fontSize=18;" parent="0y_FmM4RNKvWT69SuI2D-20" vertex="1">
          <mxGeometry width="80" height="80" as="geometry" />
        </mxCell>
        <mxCell id="0y_FmM4RNKvWT69SuI2D-22" value="" style="shape=image;html=1;verticalAlign=top;verticalLabelPosition=bottom;labelBackgroundColor=#ffffff;imageAspect=0;aspect=fixed;image=https://cdn1.iconfinder.com/data/icons/ionicons-fill-vol-2/512/person-128.png;fontColor=#FF99FF;container=0;fontSize=18;" parent="0y_FmM4RNKvWT69SuI2D-20" vertex="1">
          <mxGeometry x="10" y="10" width="60" height="60" as="geometry" />
        </mxCell>
        <mxCell id="0y_FmM4RNKvWT69SuI2D-30" value="&lt;font style=&quot;font-size: 18px;&quot;&gt;Trusts&lt;/font&gt;" style="shape=flexArrow;endArrow=classic;html=1;rounded=0;endWidth=26.857142857142858;endSize=8.120000000000001;" parent="1" edge="1">
          <mxGeometry x="0.0706" y="29" width="50" height="50" relative="1" as="geometry">
            <mxPoint x="500" y="760" as="sourcePoint" />
            <mxPoint x="360" y="720" as="targetPoint" />
            <mxPoint as="offset" />
          </mxGeometry>
        </mxCell>
        <mxCell id="0y_FmM4RNKvWT69SuI2D-31" value="&lt;font style=&quot;font-size: 18px;&quot;&gt;Trusts&lt;/font&gt;" style="shape=flexArrow;endArrow=classic;html=1;rounded=0;endWidth=26.857142857142858;endSize=8.120000000000001;" parent="1" edge="1">
          <mxGeometry x="0.0706" y="29" width="50" height="50" relative="1" as="geometry">
            <mxPoint x="740" y="600" as="sourcePoint" />
            <mxPoint x="620" y="600" as="targetPoint" />
            <mxPoint as="offset" />
          </mxGeometry>
        </mxCell>
        <mxCell id="0y_FmM4RNKvWT69SuI2D-32" value="&lt;font style=&quot;font-size: 18px;&quot;&gt;Trusts&lt;/font&gt;" style="shape=flexArrow;endArrow=classic;html=1;rounded=0;endWidth=26.857142857142858;endSize=8.120000000000001;" parent="1" edge="1">
          <mxGeometry x="0.0706" y="29" width="50" height="50" relative="1" as="geometry">
            <mxPoint x="500" y="600" as="sourcePoint" />
            <mxPoint x="360" y="640" as="targetPoint" />
            <mxPoint as="offset" />
          </mxGeometry>
        </mxCell>
        <mxCell id="0y_FmM4RNKvWT69SuI2D-33" value="Browser&lt;br&gt;&lt;div&gt;&quot;Renderer&quot;&lt;/div&gt;" style="text;html=1;strokeColor=none;fillColor=none;align=center;verticalAlign=middle;whiteSpace=wrap;rounded=0;fontSize=18;" parent="1" vertex="1">
          <mxGeometry x="280" y="560" width="80" height="80" as="geometry" />
        </mxCell>
        <mxCell id="0y_FmM4RNKvWT69SuI2D-35" value="&lt;div&gt;WebApp&lt;/div&gt;&lt;div&gt;&quot;Sandbox&quot;&lt;/div&gt;" style="text;html=1;strokeColor=none;fillColor=none;align=center;verticalAlign=middle;whiteSpace=wrap;rounded=0;fontSize=18;" parent="1" vertex="1">
          <mxGeometry x="520" y="800" width="80" height="80" as="geometry" />
        </mxCell>
        <mxCell id="0y_FmM4RNKvWT69SuI2D-36" value="&quot;Nested&quot;&lt;div&gt;Sandbox&lt;/div&gt;" style="text;html=1;strokeColor=none;fillColor=none;align=center;verticalAlign=middle;whiteSpace=wrap;rounded=0;fontSize=18;" parent="1" vertex="1">
          <mxGeometry x="760" y="640" width="80" height="80" as="geometry" />
        </mxCell>
        <mxCell id="0y_FmM4RNKvWT69SuI2D-15" value="" style="ellipse;whiteSpace=wrap;html=1;strokeWidth=4;fillColor=#ffe6cc;strokeColor=#d79b00;fontSize=18;" parent="1" vertex="1">
          <mxGeometry x="520" y="560" width="80" height="80" as="geometry" />
        </mxCell>
        <mxCell id="0y_FmM4RNKvWT69SuI2D-16" value="" style="shape=image;html=1;verticalAlign=top;verticalLabelPosition=bottom;labelBackgroundColor=#ffffff;imageAspect=0;aspect=fixed;image=https://cdn1.iconfinder.com/data/icons/ionicons-fill-vol-2/512/person-128.png;fontColor=#FF99FF;fontSize=18;" parent="1" vertex="1">
          <mxGeometry x="530" y="570" width="60" height="60" as="geometry" />
        </mxCell>
        <mxCell id="0y_FmM4RNKvWT69SuI2D-42" value="Distrusts" style="shape=flexArrow;endArrow=classic;startArrow=classic;html=1;rounded=0;entryX=0.504;entryY=0.996;entryDx=0;entryDy=0;entryPerimeter=0;fontSize=18;" parent="1" target="0y_FmM4RNKvWT69SuI2D-15" edge="1">
          <mxGeometry x="0.001" y="-50" width="100" height="100" relative="1" as="geometry">
            <mxPoint x="560" y="720" as="sourcePoint" />
            <mxPoint x="610" y="650" as="targetPoint" />
            <mxPoint as="offset" />
          </mxGeometry>
        </mxCell>
        <mxCell id="0y_FmM4RNKvWT69SuI2D-45" value="" style="shape=cross;whiteSpace=wrap;html=1;rotation=45;fillColor=#f8cecc;strokeColor=#b85450;" parent="1" vertex="1">
          <mxGeometry x="540" y="660" width="40" height="40" as="geometry" />
        </mxCell>
        <mxCell id="KY_1hAlSIMzd75fBiZGd-2" value="" style="group;fontSize=18;" vertex="1" connectable="0" parent="1">
          <mxGeometry x="80" y="640" width="80" height="80" as="geometry" />
        </mxCell>
        <mxCell id="KY_1hAlSIMzd75fBiZGd-3" value="" style="ellipse;whiteSpace=wrap;html=1;strokeWidth=4;fillColor=#f5f5f5;strokeColor=#666666;fontSize=18;fontColor=#333333;" vertex="1" parent="KY_1hAlSIMzd75fBiZGd-2">
          <mxGeometry width="80" height="80" as="geometry" />
        </mxCell>
        <mxCell id="KY_1hAlSIMzd75fBiZGd-4" value="" style="shape=image;html=1;verticalAlign=top;verticalLabelPosition=bottom;labelBackgroundColor=#ffffff;imageAspect=0;aspect=fixed;image=https://cdn1.iconfinder.com/data/icons/ionicons-fill-vol-2/512/person-128.png;fontColor=#FF99FF;fontSize=18;" vertex="1" parent="KY_1hAlSIMzd75fBiZGd-2">
          <mxGeometry x="10" y="10" width="60" height="60" as="geometry" />
        </mxCell>
        <mxCell id="KY_1hAlSIMzd75fBiZGd-5" value="" style="shape=flexArrow;endArrow=classic;startArrow=classic;html=1;rounded=0;entryX=0;entryY=0.5;entryDx=0;entryDy=0;entryPerimeter=0;" edge="1" parent="1" target="0y_FmM4RNKvWT69SuI2D-12">
          <mxGeometry width="100" height="100" relative="1" as="geometry">
            <mxPoint x="160" y="680" as="sourcePoint" />
            <mxPoint x="260" y="580" as="targetPoint" />
          </mxGeometry>
        </mxCell>
        <mxCell id="KY_1hAlSIMzd75fBiZGd-6" value="&lt;font style=&quot;font-size: 18px;&quot;&gt;Distrusts&lt;/font&gt;" style="edgeLabel;html=1;align=center;verticalAlign=middle;resizable=0;points=[];" vertex="1" connectable="0" parent="KY_1hAlSIMzd75fBiZGd-5">
          <mxGeometry x="-0.1452" y="2" relative="1" as="geometry">
            <mxPoint x="9" y="-28" as="offset" />
          </mxGeometry>
        </mxCell>
        <mxCell id="KY_1hAlSIMzd75fBiZGd-7" value="&lt;div&gt;Browser&lt;br&gt;&lt;/div&gt;&lt;div&gt;&quot;Local&quot;&lt;/div&gt;" style="text;html=1;strokeColor=none;fillColor=none;align=center;verticalAlign=middle;whiteSpace=wrap;rounded=0;fontSize=18;" vertex="1" parent="1">
          <mxGeometry x="80" y="560" width="80" height="80" as="geometry" />
        </mxCell>
        <mxCell id="KY_1hAlSIMzd75fBiZGd-9" value="" style="group;fontSize=18;" vertex="1" connectable="0" parent="1">
          <mxGeometry x="180" y="800" width="80" height="80" as="geometry" />
        </mxCell>
        <mxCell id="KY_1hAlSIMzd75fBiZGd-10" value="" style="ellipse;whiteSpace=wrap;html=1;strokeWidth=4;fillColor=#f8cecc;strokeColor=#b85450;fontSize=18;" vertex="1" parent="KY_1hAlSIMzd75fBiZGd-9">
          <mxGeometry width="80" height="80" as="geometry" />
        </mxCell>
        <mxCell id="KY_1hAlSIMzd75fBiZGd-11" value="" style="shape=image;html=1;verticalAlign=top;verticalLabelPosition=bottom;labelBackgroundColor=#ffffff;imageAspect=0;aspect=fixed;image=https://cdn1.iconfinder.com/data/icons/ionicons-fill-vol-2/512/person-128.png;fontColor=#FF99FF;fontSize=18;" vertex="1" parent="KY_1hAlSIMzd75fBiZGd-9">
          <mxGeometry x="10" y="10" width="60" height="60" as="geometry" />
        </mxCell>
        <mxCell id="KY_1hAlSIMzd75fBiZGd-12" value="&lt;div&gt;Memory&lt;/div&gt;&lt;div&gt;&quot;Manager&quot;&lt;br&gt;&lt;/div&gt;" style="text;html=1;strokeColor=none;fillColor=none;align=center;verticalAlign=middle;whiteSpace=wrap;rounded=0;fontSize=18;" vertex="1" parent="1">
          <mxGeometry x="180" y="880" width="80" height="80" as="geometry" />
        </mxCell>
        <mxCell id="KY_1hAlSIMzd75fBiZGd-13" value="" style="shape=flexArrow;endArrow=classic;startArrow=none;html=1;rounded=0;startFill=0;" edge="1" parent="1">
          <mxGeometry width="100" height="100" relative="1" as="geometry">
            <mxPoint x="160" y="720" as="sourcePoint" />
            <mxPoint x="180" y="800" as="targetPoint" />
          </mxGeometry>
        </mxCell>
        <mxCell id="KY_1hAlSIMzd75fBiZGd-14" value="&lt;font style=&quot;font-size: 18px;&quot;&gt;Trusts&lt;/font&gt;" style="edgeLabel;html=1;align=center;verticalAlign=middle;resizable=0;points=[];" vertex="1" connectable="0" parent="KY_1hAlSIMzd75fBiZGd-13">
          <mxGeometry x="-0.1452" y="2" relative="1" as="geometry">
            <mxPoint x="50" y="27" as="offset" />
          </mxGeometry>
        </mxCell>
        <mxCell id="KY_1hAlSIMzd75fBiZGd-15" value="" style="shape=flexArrow;endArrow=classic;startArrow=none;html=1;rounded=0;startFill=0;" edge="1" parent="1">
          <mxGeometry width="100" height="100" relative="1" as="geometry">
            <mxPoint x="280" y="720" as="sourcePoint" />
            <mxPoint x="260" y="800" as="targetPoint" />
          </mxGeometry>
        </mxCell>
      </root>
    </mxGraphModel>
  </diagram>
</mxfile>
